<svg width="20" height="21" viewBox="0 0 20 21" fill="none" xmlns="http://www.w3.org/2000/svg">
<g clip-path="url(#clip0_706_1082)">
<path d="M16.75 11.1365C16.8966 10.9803 16.979 10.7683 16.979 10.5474C16.979 10.3264 16.8966 10.1145 16.75 9.9582L12.3263 5.24403C12.2542 5.16444 12.1679 5.10095 12.0725 5.05728C11.9771 5.01361 11.8745 4.99062 11.7706 4.98966C11.6668 4.98869 11.5638 5.00978 11.4677 5.05168C11.3716 5.09358 11.2843 5.15546 11.2109 5.2337C11.1375 5.31195 11.0794 5.40499 11.0401 5.5074C11.0008 5.60982 10.981 5.71955 10.9819 5.8302C10.9828 5.94085 11.0044 6.0502 11.0453 6.15187C11.0863 6.25354 11.1459 6.34549 11.2206 6.42236L14.3095 9.71403H3.95356C3.74616 9.71403 3.54726 9.80183 3.4006 9.95811C3.25395 10.1144 3.17157 10.3264 3.17157 10.5474C3.17157 10.7684 3.25395 10.9803 3.4006 11.1366C3.54726 11.2929 3.74616 11.3807 3.95356 11.3807H14.3095L11.2206 14.6724C11.0781 14.8295 10.9993 15.04 11.0011 15.2585C11.0029 15.477 11.0851 15.686 11.2301 15.8405C11.3751 15.9951 11.5712 16.0827 11.7763 16.0846C11.9813 16.0865 12.1788 16.0025 12.3263 15.8507L16.75 11.1365Z" fill="#26697D"/>
</g>
<defs>
<clipPath id="clip0_706_1082">
<rect width="20" height="18.7678" fill="white" transform="matrix(0 1 -1 0 19.5933 0.547363)"/>
</clipPath>
</defs>
</svg>
