<svg width="25" height="24" viewBox="0 0 25 24" fill="none" xmlns="http://www.w3.org/2000/svg">
<g id="maki:arrow">
<path id="Vector" d="M13.7688 3.66865C14.0689 3.3687 14.4758 3.2002 14.9 3.2002C15.3243 3.2002 15.7312 3.3687 16.0312 3.66865L23.2312 10.8687C23.5312 11.1687 23.6997 11.5756 23.6997 11.9999C23.6997 12.4241 23.5312 12.831 23.2312 13.1311L16.0312 20.3311C15.7295 20.6225 15.3253 20.7838 14.9058 20.7801C14.4863 20.7765 14.085 20.6082 13.7883 20.3116C13.4917 20.0149 13.3234 19.6136 13.3198 19.1941C13.3161 18.7746 13.4774 18.3704 13.7688 18.0687L18.1 13.5999H2.90005C2.4757 13.5999 2.06874 13.4313 1.76868 13.1312C1.46862 12.8312 1.30005 12.4242 1.30005 11.9999C1.30005 11.5755 1.46862 11.1685 1.76868 10.8685C2.06874 10.5684 2.4757 10.3999 2.90005 10.3999H18.1L13.7688 5.93105C13.4689 5.63101 13.3004 5.22412 13.3004 4.79985C13.3004 4.37559 13.4689 3.9687 13.7688 3.66865Z" fill="white"/>
</g>
</svg>
