<svg width="28" height="28" viewBox="0 0 28 28" fill="none" xmlns="http://www.w3.org/2000/svg">
<path d="M4.66671 23.3333C4.02504 23.3333 3.47593 23.105 3.01937 22.6485C2.56282 22.1919 2.33415 21.6424 2.33337 21V6.99996C2.33337 6.35829 2.56204 5.80918 3.01937 5.35263C3.47671 4.89607 4.02582 4.6674 4.66671 4.66663H23.3334C23.975 4.66663 24.5245 4.89529 24.9819 5.35263C25.4392 5.80996 25.6675 6.35907 25.6667 6.99996V21C25.6667 21.6416 25.4384 22.1911 24.9819 22.6485C24.5253 23.1058 23.9758 23.3341 23.3334 23.3333H4.66671ZM14 15.1666L4.66671 9.33329V21H23.3334V9.33329L14 15.1666ZM14 12.8333L23.3334 6.99996H4.66671L14 12.8333ZM4.66671 9.33329V6.99996V21V9.33329Z" fill="white"/>
</svg>
