<svg width="32" height="32" viewBox="0 0 32 32" fill="none" xmlns="http://www.w3.org/2000/svg">
<path fill-rule="evenodd" clip-rule="evenodd" d="M29.9 7.368L17.274 17.824C16.9152 18.1213 16.4639 18.2839 15.998 18.2839C15.5321 18.2839 15.0808 18.1213 14.722 17.824L2.102 7.368C2.03429 7.57182 1.99984 7.78522 2 8V24C2 24.5304 2.21071 25.0391 2.58579 25.4142C2.96086 25.7893 3.46957 26 4 26H28C28.5304 26 29.0391 25.7893 29.4142 25.4142C29.7893 25.0391 30 24.5304 30 24V8C30.0008 7.78533 29.967 7.57193 29.9 7.368ZM4 4H28C29.0609 4 30.0783 4.42143 30.8284 5.17157C31.5786 5.92172 32 6.93913 32 8V24C32 25.0609 31.5786 26.0783 30.8284 26.8284C30.0783 27.5786 29.0609 28 28 28H4C2.93913 28 1.92172 27.5786 1.17157 26.8284C0.421427 26.0783 0 25.0609 0 24V8C0 6.93913 0.421427 5.92172 1.17157 5.17157C1.92172 4.42143 2.93913 4 4 4ZM3.58 6L14.732 15.206C15.0892 15.501 15.5377 15.6629 16.0009 15.664C16.4642 15.6651 16.9134 15.5053 17.272 15.212L28.536 6H3.58Z" fill="#26697D"/>
</svg>
