<svg width="28" height="28" viewBox="0 0 28 28" fill="none" xmlns="http://www.w3.org/2000/svg">
<path d="M14 2.33337C9.48504 2.33337 5.83337 5.98504 5.83337 10.5C5.83337 16.625 14 25.6667 14 25.6667C14 25.6667 22.1667 16.625 22.1667 10.5C22.1667 5.98504 18.515 2.33337 14 2.33337ZM14 13.4167C13.2265 13.4167 12.4846 13.1094 11.9376 12.5624C11.3907 12.0155 11.0834 11.2736 11.0834 10.5C11.0834 9.72649 11.3907 8.98463 11.9376 8.43765C12.4846 7.89067 13.2265 7.58337 14 7.58337C14.7736 7.58337 15.5155 7.89067 16.0624 8.43765C16.6094 8.98463 16.9167 9.72649 16.9167 10.5C16.9167 11.2736 16.6094 12.0155 16.0624 12.5624C15.5155 13.1094 14.7736 13.4167 14 13.4167Z" fill="white"/>
</svg>
